<svg width="288" height="120" viewBox="0 0 288 120" fill="none" xmlns="http://www.w3.org/2000/svg">
<rect x="0.5" y="0.5" width="286.5" height="119" rx="4.5" fill="white"/>
<path d="M87.4844 60.0014C87.4844 42.486 113.715 29.4433 143.993 29.4433C174.272 29.4433 200.516 42.486 200.516 60.0014C200.516 77.5222 174.272 90.5327 143.993 90.5327C113.715 90.5327 87.4844 77.5222 87.4844 60.0014Z" fill="white"/>
<path fill-rule="evenodd" clip-rule="evenodd" d="M143.993 28C176.012 28 202 42.3389 202 60.0013C202 77.6664 176.012 92 143.993 92C111.988 92 86 77.6664 86 60.0013C86 42.3389 111.988 28 143.993 28ZM143.993 30.8865C113.607 30.8865 88.928 43.9559 88.928 60.0013C88.928 76.0535 113.607 89.0921 143.993 89.0921C174.38 89.0921 199.059 76.0535 199.059 60.0013C199.059 43.9559 174.38 30.8865 143.993 30.8865ZM133.806 63.0736H122.391C122.526 65.8558 124.104 67.1454 126.466 67.1454C128.22 67.1454 129.421 66.1672 129.731 65.1823H133.469C132.511 68.5486 129.731 70.1067 126.304 70.1067C121.446 70.1067 118.424 66.7966 118.424 62.0687C118.424 57.489 121.622 54.0012 126.304 54.0012C131.566 54.0012 134.103 58.375 133.806 63.0736ZM126.196 56.885C123.821 56.885 122.607 58.4499 122.418 60.4517H129.826C129.542 58.3149 128.638 56.885 126.196 56.885ZM183.231 63.0736H171.816C171.937 65.8558 173.53 67.1454 175.877 67.1454C177.645 67.1454 178.846 66.1672 179.156 65.1823H182.894C181.936 68.5486 179.156 70.1067 175.729 70.1067C170.858 70.1067 167.849 66.7966 167.849 62.0687C167.849 57.489 171.047 54.0012 175.729 54.0012C180.991 54.0012 183.528 58.375 183.231 63.0736ZM175.608 56.885C173.246 56.885 172.032 58.4499 171.829 60.4517H179.251C178.967 58.3149 178.063 56.885 175.608 56.885ZM98.4541 69.6925H102.691V60.5907H111.839V69.6925H116.076V48.5529H111.839V57.2084H102.691V48.5529H98.4541V69.6925ZM136.14 69.6925H140.134V61.4286C140.134 58.3256 141.241 57.0547 143.535 57.0547C145.504 57.0547 146.395 58.2962 146.395 60.8072V69.6925H150.375V60.2953C150.375 56.5135 149.242 54.0012 144.722 54.0012C142.941 54.0012 141.079 54.8297 140.013 56.5429H139.918V54.4154H136.14V69.6925ZM153.776 69.6925H157.756V61.4192L163.639 69.6925H168.591L162.114 61.1199L167.849 54.4154H163.099L157.756 61.0023V48.5529H153.776V69.6925ZM185.565 69.6925H189.546V48.5529H185.565V69.6925Z" fill="#EC1B23"/>
<rect x="0.5" y="0.5" width="286.5" height="119" rx="4.5" stroke="#EBEBF1"/>
</svg>
